<mxfile host="app.diagrams.net" modified="2024-04-17T11:01:22.318Z" agent="Mozilla/5.0 (Windows NT 10.0; Win64; x64) AppleWebKit/537.36 (KHTML, like Gecko) Chrome/123.0.0.0 Safari/537.36" etag="cMAsynJaOqiNHfcp0toN" version="24.2.2" type="github">
  <diagram name="Page-1" id="6xthjZ5Lu3Rkhmqp_Xl_">
    <mxGraphModel dx="1311" dy="647" grid="1" gridSize="10" guides="1" tooltips="1" connect="1" arrows="1" fold="1" page="1" pageScale="1" pageWidth="850" pageHeight="1100" math="0" shadow="0">
      <root>
        <mxCell id="0" />
        <mxCell id="1" parent="0" />
        <mxCell id="sJMzvKe1cDnr5FpkITX1-20" value="" style="rounded=0;whiteSpace=wrap;html=1;" vertex="1" parent="1">
          <mxGeometry x="15" y="120" width="825" height="370" as="geometry" />
        </mxCell>
        <mxCell id="sJMzvKe1cDnr5FpkITX1-4" style="edgeStyle=orthogonalEdgeStyle;rounded=0;orthogonalLoop=1;jettySize=auto;html=1;" edge="1" parent="1" source="sJMzvKe1cDnr5FpkITX1-1" target="sJMzvKe1cDnr5FpkITX1-2">
          <mxGeometry relative="1" as="geometry" />
        </mxCell>
        <mxCell id="sJMzvKe1cDnr5FpkITX1-10" style="edgeStyle=orthogonalEdgeStyle;rounded=0;orthogonalLoop=1;jettySize=auto;html=1;entryX=0;entryY=0.5;entryDx=0;entryDy=0;" edge="1" parent="1" source="sJMzvKe1cDnr5FpkITX1-1" target="sJMzvKe1cDnr5FpkITX1-7">
          <mxGeometry relative="1" as="geometry">
            <Array as="points">
              <mxPoint x="90" y="410" />
            </Array>
          </mxGeometry>
        </mxCell>
        <mxCell id="sJMzvKe1cDnr5FpkITX1-1" value="Bundler" style="rounded=1;whiteSpace=wrap;html=1;" vertex="1" parent="1">
          <mxGeometry x="30" y="280" width="120" height="60" as="geometry" />
        </mxCell>
        <mxCell id="sJMzvKe1cDnr5FpkITX1-2" value="Entrypoint&lt;div&gt;Contract&lt;/div&gt;" style="rounded=1;whiteSpace=wrap;html=1;" vertex="1" parent="1">
          <mxGeometry x="370" y="280" width="120" height="60" as="geometry" />
        </mxCell>
        <mxCell id="sJMzvKe1cDnr5FpkITX1-3" value="User Ops" style="text;html=1;align=center;verticalAlign=middle;whiteSpace=wrap;rounded=0;" vertex="1" parent="1">
          <mxGeometry x="210" y="270" width="90" height="30" as="geometry" />
        </mxCell>
        <mxCell id="sJMzvKe1cDnr5FpkITX1-5" value="Alchemy bundler APIs" style="text;html=1;align=center;verticalAlign=middle;whiteSpace=wrap;rounded=0;" vertex="1" parent="1">
          <mxGeometry x="45" y="240" width="90" height="30" as="geometry" />
        </mxCell>
        <mxCell id="sJMzvKe1cDnr5FpkITX1-6" value="Alchemy EntryPoint&lt;br&gt;contract" style="text;html=1;align=center;verticalAlign=middle;whiteSpace=wrap;rounded=0;" vertex="1" parent="1">
          <mxGeometry x="385" y="240" width="90" height="30" as="geometry" />
        </mxCell>
        <mxCell id="sJMzvKe1cDnr5FpkITX1-11" style="edgeStyle=orthogonalEdgeStyle;rounded=0;orthogonalLoop=1;jettySize=auto;html=1;entryX=0.5;entryY=1;entryDx=0;entryDy=0;" edge="1" parent="1" source="sJMzvKe1cDnr5FpkITX1-7" target="sJMzvKe1cDnr5FpkITX1-2">
          <mxGeometry relative="1" as="geometry" />
        </mxCell>
        <mxCell id="sJMzvKe1cDnr5FpkITX1-7" value="Paymaster" style="rounded=1;whiteSpace=wrap;html=1;" vertex="1" parent="1">
          <mxGeometry x="200" y="380" width="120" height="60" as="geometry" />
        </mxCell>
        <mxCell id="sJMzvKe1cDnr5FpkITX1-9" value="Alchemy Gas manager" style="text;html=1;align=center;verticalAlign=middle;whiteSpace=wrap;rounded=0;" vertex="1" parent="1">
          <mxGeometry x="215" y="340" width="90" height="30" as="geometry" />
        </mxCell>
        <mxCell id="sJMzvKe1cDnr5FpkITX1-14" value="" style="edgeStyle=orthogonalEdgeStyle;rounded=0;orthogonalLoop=1;jettySize=auto;html=1;startArrow=classic;startFill=1;" edge="1" parent="1" source="sJMzvKe1cDnr5FpkITX1-12" target="sJMzvKe1cDnr5FpkITX1-2">
          <mxGeometry relative="1" as="geometry" />
        </mxCell>
        <mxCell id="sJMzvKe1cDnr5FpkITX1-16" value="" style="edgeStyle=orthogonalEdgeStyle;rounded=0;orthogonalLoop=1;jettySize=auto;html=1;startArrow=classic;startFill=1;" edge="1" parent="1" source="sJMzvKe1cDnr5FpkITX1-12" target="sJMzvKe1cDnr5FpkITX1-15">
          <mxGeometry relative="1" as="geometry" />
        </mxCell>
        <mxCell id="sJMzvKe1cDnr5FpkITX1-18" value="" style="edgeStyle=orthogonalEdgeStyle;rounded=0;orthogonalLoop=1;jettySize=auto;html=1;" edge="1" parent="1" source="sJMzvKe1cDnr5FpkITX1-12" target="sJMzvKe1cDnr5FpkITX1-17">
          <mxGeometry relative="1" as="geometry" />
        </mxCell>
        <mxCell id="sJMzvKe1cDnr5FpkITX1-12" value="Kresus&lt;br&gt;Factory" style="rounded=1;whiteSpace=wrap;html=1;" vertex="1" parent="1">
          <mxGeometry x="550" y="280" width="120" height="60" as="geometry" />
        </mxCell>
        <mxCell id="sJMzvKe1cDnr5FpkITX1-19" style="edgeStyle=orthogonalEdgeStyle;rounded=0;orthogonalLoop=1;jettySize=auto;html=1;startArrow=classic;startFill=1;" edge="1" parent="1" source="sJMzvKe1cDnr5FpkITX1-15" target="sJMzvKe1cDnr5FpkITX1-17">
          <mxGeometry relative="1" as="geometry" />
        </mxCell>
        <mxCell id="sJMzvKe1cDnr5FpkITX1-15" value="Wallet&amp;nbsp;&lt;br&gt;Implementation&lt;br&gt;AA contract" style="rounded=1;whiteSpace=wrap;html=1;" vertex="1" parent="1">
          <mxGeometry x="550" y="380" width="120" height="60" as="geometry" />
        </mxCell>
        <mxCell id="sJMzvKe1cDnr5FpkITX1-17" value="Wallet&amp;nbsp;&lt;div&gt;Proxy&lt;/div&gt;" style="ellipse;whiteSpace=wrap;html=1;rounded=1;" vertex="1" parent="1">
          <mxGeometry x="740" y="270" width="80" height="80" as="geometry" />
        </mxCell>
        <mxCell id="sJMzvKe1cDnr5FpkITX1-21" value="&lt;h1 data-sider-select-id=&quot;0070bef6-9d20-45a6-8639-8bb5986b9c1f&quot; style=&quot;margin-top: 0px;&quot;&gt;Kresus AA components&lt;/h1&gt;" style="text;html=1;whiteSpace=wrap;overflow=hidden;rounded=0;" vertex="1" parent="1">
          <mxGeometry x="35" y="140" width="285" height="50" as="geometry" />
        </mxCell>
      </root>
    </mxGraphModel>
  </diagram>
</mxfile>
